<svg xmlns="http://www.w3.org/2000/svg" version="1.1" xmlns:xlink="http://www.w3.org/1999/xlink" width="16px" height="16px" viewBox="0 0 16 16">
<path fill="#E0E0E0" fill-opacity="0.996078431372549" stroke="none" d="
M 10 8
Q 10 7.2 9.4 6.6 8.85 6 8 6 7.15 6 6.55 6.6 6 7.15 6 8 6 8.85 6.55 9.45 7.15 10 8 10 8.85 10 9.4 9.45 10 8.85 10 8
M 2 8
Q 1 8 1 9
L 1 14
Q 1 15 2 15
L 7 15
Q 8 15 8 14 8 13.6 7.7 13.3 7.4 13 7 13
L 4.4 13 5.7 11.75 4.25 10.3 2.95 11.6 2.95 9
Q 2.95 8.6 2.7 8.3 2.4 8 2 8
M 11.55 3
L 10.25 4.3 11.7 5.75 13 4.45 13 7.05
Q 13 8.05 14 8.05 14.4 8.05 14.7 7.75 15 7.45 15 7.05
L 15 2.05
Q 14.9 1.05 14 1.05
L 9 1
Q 8.55 1 8.3 1.3 8 1.6 8 2 8 3 9 3
L 11.55 3 Z"/>
</svg>
