<svg xmlns="http://www.w3.org/2000/svg" version="1.1" xmlns:xlink="http://www.w3.org/1999/xlink" preserveAspectRatio="none" x="0px" y="0px" width="16px" height="16px" viewBox="0 0 16 16">
<path fill="#E0E0E0" fill-opacity="0.996078431372549" stroke="none" d="
M 8 6.4
Q 7.4 6.4 6.9 6.9 6.4 7.3 6.4 8 6.4 8.7 6.9 9.2 7.3 9.6 8 9.6 8.7 9.6 9.2 9.2 9.6 8.7 9.6 8 9.6 7.3 9.2 6.9 8.7 6.4 8 6.4
M 7.8 2.5
Q 7.6 2.3 7.2 2.3
L 3.1 2.3
Q 2.25 2.35 2.25 3.05
L 2.25 7.15
Q 2.3 7.6 2.5 7.8 2.8 8 3.05 8.05 3.9 8 3.9 7.2
L 3.9 5.1 4.95 6.15 6.15 4.95 5.1 3.9 7.2 3.9
Q 8.05 3.85 8.05 3.05 8.05 2.75 7.8 2.5
M 12.1 8.9
L 12.1 11 11.05 9.95 9.9 11.1 11 12.2 8.85 12.15
Q 8.5 12.2 8.2 12.4 8 12.6 8 13 8 13.7 8.85 13.75
L 12.95 13.75
Q 13.75 13.75 13.75 12.95
L 13.75 8.85
Q 13.7 8 12.95 8.05 12.6 8 12.3 8.3 12.1 8.5 12.1 8.9 Z"/>
</svg>
