<svg xmlns="http://www.w3.org/2000/svg" version="1.1" xmlns:xlink="http://www.w3.org/1999/xlink" preserveAspectRatio="none" x="0px" y="0px" width="16px" height="16px" viewBox="0 0 16 16">
<path fill="#E0E0E0" fill-opacity="0.996078431372549" stroke="none" d="
M 8.95 7
Q 8.45 6.5 7.8 6.45 7.15 6.5 6.65 7 6.15 7.5 6.15 8.1 6.15 8.8 6.65 9.3 7.1 9.75 7.8 9.75 8.45 9.8 8.95 9.3 9.45 8.8 9.45 8.1 9.45 7.5 8.95 7
M 10.75 4.9
Q 11.05 4.9 11.3 4.65 11.85 4.1 11.25 3.5
L 8.35 0.6
Q 7.8 0.05 7.25 0.6
L 4.35 3.5
Q 3.75 4.1 4.3 4.65 4.55 4.9 4.95 4.9 5.25 4.9 5.5 4.65
L 7 3.15 7 4.65 8.65 4.6 8.65 3.1 10.15 4.6
Q 10.4 4.85 10.75 4.9
M 11.55 12.2
Q 11.5 11.85 11.3 11.65 10.7 11.05 10.1 11.65
L 8.65 13.1 8.65 11.6 6.95 11.6 6.95 13.1 5.45 11.6
Q 4.85 11.05 4.25 11.65 4.05 11.85 4.05 12.2 4.05 12.5 4.3 12.75
L 7.2 15.65
Q 7.85 16.2 8.35 15.7
L 11.25 12.8
Q 11.55 12.5 11.55 12.2 Z"/>
</svg>
