<svg xmlns="http://www.w3.org/2000/svg" version="1.1" xmlns:xlink="http://www.w3.org/1999/xlink" preserveAspectRatio="none" x="0px" y="0px" width="16px" height="16px" viewBox="0 0 16 16">
<path fill="#E0E0E0" fill-opacity="0.996078431372549" stroke="none" d="
M 6.85 6.85
Q 6.4 7.3 6.4 8 6.35 8.65 6.85 9.15 7.35 9.65 8.05 9.65 8.65 9.65 9.15 9.15 9.65 8.65 9.7 8 9.65 7.35 9.15 6.85 8.65 6.35 8.05 6.35 7.35 6.35 6.85 6.85
M 3.95 4.25
Q 3.65 4.25 3.4 4.5
L 0.5 7.4
Q -0.05 8.05 0.45 8.55
L 3.35 11.45
Q 3.65 11.75 3.95 11.75 4.3 11.7 4.5 11.5 5.1 10.9 4.5 10.3
L 3.05 8.85 4.55 8.85 4.55 7.15 3.05 7.15 4.55 5.65
Q 5.1 5.05 4.5 4.45 4.3 4.25 3.95 4.25
M 12.65 4.55
Q 12.05 3.95 11.5 4.5 11.25 4.75 11.25 5.15 11.25 5.45 11.5 5.7
L 13 7.2 11.5 7.2 11.55 8.85 13.05 8.85 11.55 10.35
Q 11.3 10.6 11.25 10.95 11.25 11.25 11.5 11.5 12.05 12.05 12.65 11.45
L 15.55 8.55
Q 16.1 8 15.55 7.45
L 12.65 4.55 Z"/>
</svg>
