<?xml version="1.0" encoding="utf-8"?>
<!-- Generator: Adobe Illustrator 25.0.0, SVG Export Plug-In . SVG Version: 6.00 Build 0)  -->
<svg version="1.1" id="Layer_1" xmlns="http://www.w3.org/2000/svg" xmlns:xlink="http://www.w3.org/1999/xlink" x="0px" y="0px"
	 viewBox="0 0 16 16" style="enable-background:new 0 0 16 16;" xml:space="preserve">
<style type="text/css">
	.st0{fill:#A5B7F3;}
	.st1{fill:#F5F5F5;}
</style>
<path class="st0" d="M11.4,7.7c-2.7,1.8-1.9,4.6-3.8,6.7c-1.1,1.2-2.7,1.1-6,0.3c-0.2-0.1-0.4-0.1-0.6-0.2c0,0-0.6,0.6-0.4,0.7
	C2,15.6,6.2,17,8.4,14.8c2.6-2.6,1.3-6.3,5.7-6.4C18.5,8.2,14.2,5.9,11.4,7.7z"/>
<path class="st1" d="M3,13.4l-1.1-0.8l-1.1,1.8l-0.2-2.7l1.7,0l1.2,0.9l6.8-8.1L10,1.2l-7.3,9.9l1.4-5l3.5-5.5l3-0.1l0.2,3.2
	l0.4-0.4L11,0.1L7.4,0.2L0.2,11.6L0.5,15L3,13.4z"/>
</svg>
